<?xml version="1.0" encoding="utf-8" standalone="no"?><!DOCTYPE svg PUBLIC "-//W3C//DTD SVG 20010904//EN" "http://www.w3.org/TR/2001/REC-SVG-20010904/DTD/svg10.dtd"><svg xmlns="http://www.w3.org/2000/svg" width="506" height="909" xmlns:xlink="http://www.w3.org/1999/xlink"><source><![CDATA[Created with Raphaël 2.1.2StartconstName & control # Not allowed to import anythingfunction & classdefinebeforemaincallBackEndyesno]]></source><desc>Created with Raphaël 2.1.2</desc><defs><path stroke-linecap="round" d="M5,0 0,2.5 5,5z" id="raphael-marker-block-obj205"></path><marker id="raphael-marker-endblock33-obj206" markerHeight="3" markerWidth="3" orient="auto" refX="1.5" refY="1.5"><use xlink:href="#raphael-marker-block-obj205" transform="rotate(180 1.5 1.5) scale(0.6,0.6)" stroke-width="1.6667" fill="black" stroke="none"></use></marker></defs><rect x="0" y="0" width="54" height="38" r="20" rx="20" ry="20" fill="#ffffff" stroke="#000000" style="" stroke-width="2" class="flowchart" id="start" transform="matrix(1,0,0,1,104.5,48.75)"></rect><text style="text-anchor: start; font: 15px &quot;Arial&quot;;" x="10" y="19" text-anchor="start" font="10px &quot;Arial&quot;" stroke="none" fill="#000000" id="startt" class="flowchartt" font-size="15px" transform="matrix(1,0,0,1,104.5,48.75)" stroke-width="1"><tspan dy="5">Start</tspan></text><path style="" fill="#ffffff" stroke="#000000" d="M63.75,31.875L0,63.75L127.5,127.5L255,63.75L127.5,0L0,63.75" stroke-width="2" id="constName" class="flowchart" transform="matrix(1,0,0,1,4,140.75)"></path><text style="text-anchor: start; font: 15px &quot;Arial&quot;;" x="68.75" y="63.75" text-anchor="start" font="10px &quot;Arial&quot;" stroke="none" fill="#000000" id="constNamet" class="flowchartt" font-size="15px" transform="matrix(1,0,0,1,4,140.75)" stroke-width="1"><tspan dy="5">constName &amp; control </tspan></text><rect x="0" y="0" width="229" height="38" r="0" rx="0" ry="0" fill="#ffffff" stroke="#000000" style="" stroke-width="2" class="flowchart" id="msg" transform="matrix(1,0,0,1,17,367)"></rect><text style="text-anchor: start; font: 15px &quot;Arial&quot;;" x="10" y="19" text-anchor="start" font="10px &quot;Arial&quot;" stroke="none" fill="#000000" id="msgt" class="flowchartt" font-size="15px" transform="matrix(1,0,0,1,17,367)" stroke-width="1"><tspan dy="5"># Not allowed to import anything</tspan></text><rect x="0" y="0" width="127" height="38" r="0" rx="0" ry="0" fill="#ffffff" stroke="#000000" style="" stroke-width="2" class="flowchart" id="func" transform="matrix(1,0,0,1,377,185.5)"></rect><text style="text-anchor: start; font: 15px &quot;Arial&quot;;" x="10" y="19" text-anchor="start" font="10px &quot;Arial&quot;" stroke="none" fill="#000000" id="funct" class="flowchartt" font-size="15px" transform="matrix(1,0,0,1,377,185.5)" stroke-width="1"><tspan dy="5">function &amp; class</tspan></text><rect x="0" y="0" width="62" height="38" r="0" rx="0" ry="0" fill="#ffffff" stroke="#000000" style="" stroke-width="2" class="flowchart" id="define" transform="matrix(1,0,0,1,409.5,322.25)"></rect><text style="text-anchor: start; font: 15px &quot;Arial&quot;;" x="10" y="19" text-anchor="start" font="10px &quot;Arial&quot;" stroke="none" fill="#000000" id="definet" class="flowchartt" font-size="15px" transform="matrix(1,0,0,1,409.5,322.25)" stroke-width="1"><tspan dy="5">define</tspan></text><rect x="0" y="0" width="64" height="38" r="0" rx="0" ry="0" fill="#ffffff" stroke="#000000" style="" stroke-width="2" class="flowchart" id="before" transform="matrix(1,0,0,1,408.5,459)"></rect><text style="text-anchor: start; font: 15px &quot;Arial&quot;;" x="10" y="19" text-anchor="start" font="10px &quot;Arial&quot;" stroke="none" fill="#000000" id="beforet" class="flowchartt" font-size="15px" transform="matrix(1,0,0,1,408.5,459)" stroke-width="1"><tspan dy="5">before</tspan></text><rect x="0" y="0" width="55" height="38" r="0" rx="0" ry="0" fill="#ffffff" stroke="#000000" style="" stroke-width="2" class="flowchart" id="main" transform="matrix(1,0,0,1,413,595.75)"></rect><text style="text-anchor: start; font: 15px &quot;Arial&quot;;" x="10" y="19" text-anchor="start" font="10px &quot;Arial&quot;" stroke="none" fill="#000000" id="maint" class="flowchartt" font-size="15px" transform="matrix(1,0,0,1,413,595.75)" stroke-width="1"><tspan dy="5">main</tspan></text><rect x="0" y="0" width="78" height="38" r="0" rx="0" ry="0" fill="#ffffff" stroke="#000000" style="" stroke-width="2" class="flowchart" id="callBack" transform="matrix(1,0,0,1,401.5,732.5)"></rect><text style="text-anchor: start; font: 15px &quot;Arial&quot;;" x="10" y="19" text-anchor="start" font="10px &quot;Arial&quot;" stroke="none" fill="#000000" id="callBackt" class="flowchartt" font-size="15px" transform="matrix(1,0,0,1,401.5,732.5)" stroke-width="1"><tspan dy="5">callBack</tspan></text><rect x="0" y="0" width="49" height="38" r="20" rx="20" ry="20" fill="#ffffff" stroke="#000000" style="" stroke-width="2" class="flowchart" id="end" transform="matrix(1,0,0,1,416,869.25)"></rect><text style="text-anchor: start; font: 15px &quot;Arial&quot;;" x="10" y="19" text-anchor="start" font="10px &quot;Arial&quot;" stroke="none" fill="#000000" id="endt" class="flowchartt" font-size="15px" transform="matrix(1,0,0,1,416,869.25)" stroke-width="1"><tspan dy="5">End</tspan><tspan dy="18" x="10"></tspan></text><path style="" fill="none" stroke="#000000" d="M131.5,86.75C131.5,86.75,131.5,126.40409994125366,131.5,137.75043908460066" stroke-width="2" marker-end="url(#raphael-marker-endblock33-obj206)"></path><path style="" fill="none" stroke="#000000" d="M131.5,268.25C131.5,268.25,131.5,347.44100642204285,131.5,363.99068940477446" stroke-width="2" marker-end="url(#raphael-marker-endblock33-obj206)"></path><text style="text-anchor: start; font: 15px &quot;Arial&quot;;" x="136.5" y="278.25" text-anchor="start" font="10px &quot;Arial&quot;" stroke="none" fill="#000000" font-size="15px" stroke-width="1"><tspan dy="5">yes</tspan></text><path style="" fill="none" stroke="#000000" d="M259,204.5C259,204.5,355.59906911849976,204.5,373.99439966352656,204.5" stroke-width="2" marker-end="url(#raphael-marker-endblock33-obj206)"></path><text style="text-anchor: start; font: 15px &quot;Arial&quot;;" x="264" y="194.5" text-anchor="start" font="10px &quot;Arial&quot;" stroke="none" fill="#000000" font-size="15px" stroke-width="1"><tspan dy="5">no</tspan></text><path style="" fill="none" stroke="#000000" d="M440.5,223.5C440.5,223.5,440.5,302.69100642204285,440.5,319.24068940477446" stroke-width="2" marker-end="url(#raphael-marker-endblock33-obj206)"></path><path style="" fill="none" stroke="#000000" d="M440.5,360.25C440.5,360.25,440.5,439.44100642204285,440.5,455.99068940477446" stroke-width="2" marker-end="url(#raphael-marker-endblock33-obj206)"></path><path style="" fill="none" stroke="#000000" d="M440.5,497C440.5,497,440.5,576.1910064220428,440.5,592.7406894047745" stroke-width="2" marker-end="url(#raphael-marker-endblock33-obj206)"></path><path style="" fill="none" stroke="#000000" d="M440.5,633.75C440.5,633.75,440.5,712.9410064220428,440.5,729.4906894047745" stroke-width="2" marker-end="url(#raphael-marker-endblock33-obj206)"></path><path style="" fill="none" stroke="#000000" d="M440.5,770.5C440.5,770.5,440.5,849.6910064220428,440.5,866.2406894047745" stroke-width="2" marker-end="url(#raphael-marker-endblock33-obj206)"></path></svg>